<svg height="512pt" viewBox="0 -40 512 512" width="512pt" xmlns="http://www.w3.org/2000/svg"><path d="m403.105469 76.761719v-66.109375c0-5.859375-4.695313-10.652344-10.429688-10.652344h-273.351562c-5.738281 0-10.429688 4.792969-10.429688 10.652344v66.109375zm0 0" fill="#338def"/><path d="m139.800781 9.621094c0-4.238282 2.464844-7.910156 5.996094-9.621094h-26.472656c-5.738281 0-10.429688 4.792969-10.429688 10.652344v66.105468h30.90625zm0 0" fill="#117ac9"/><path d="m336.296875 76.761719 66.808594-66.109375c0-5.859375-4.695313-10.652344-10.429688-10.652344h-273.351562c-5.738281 0-10.429688 4.792969-10.429688 10.652344l66.808594 66.109375zm0 0" fill="#54a0ff"/><path d="m108.894531 10.652344 30.90625 30.582031v-31.613281c0-4.238282 2.464844-7.910156 5.996094-9.621094h-26.472656c-5.738281 0-10.429688 4.792969-10.429688 10.652344zm0 0" fill="#338def"/><path d="m424.558594 180.445312v41.445313h51.894531zm0 0" fill="#f4b537"/><path d="m87.441406 180.445312-51.894531 41.445313h51.894531zm0 0" fill="#eaa01c"/><path d="m476.453125 220.628906h-54.664063c-8.984374 0-17.007812 5.492188-20.898437 13.890625-16.660156 35.949219-75.210937 62.503907-144.890625 62.503907-69.683594 0-128.230469-26.554688-144.890625-62.503907-3.890625-8.398437-11.914063-13.890625-20.898437-13.890625h-54.664063c-9.453125 0-17.117187 7.949219-17.117187 17.75v163.800782h475.140624v-163.800782c0-9.804687-7.664062-17.75-17.117187-17.75zm0 0" fill="#feca57"/><path d="m66.453125 220.628906h-30.90625c-9.453125 0-17.117187 7.949219-17.117187 17.75v163.800782h30.910156v-163.800782c0-9.804687 7.660156-17.75 17.113281-17.75zm0 0" fill="#f4b537"/><path d="m316.796875 402.179688v-16.726563c0-6.835937-5.597656-12.433594-12.4375-12.433594h-96.71875c-6.839844 0-12.4375 5.59375-12.4375 12.433594v16.726563zm0 0" fill="#f4b537"/><path d="m238.546875 373.019531h-30.90625c-6.839844 0-12.4375 5.59375-12.4375 12.433594v16.726563h30.910156v-16.726563c-.003906-6.839844 5.59375-12.433594 12.433594-12.433594zm0 0" fill="#eaa01c"/><path d="m501.46875 401.148438h-490.9375c-5.816406 0-10.53125 4.714843-10.53125 10.53125v9.128906c0 5.816406 4.714844 10.53125 10.53125 10.53125h490.9375c5.816406 0 10.53125-4.714844 10.53125-10.53125v-9.128906c0-5.816407-4.714844-10.53125-10.53125-10.53125zm0 0" fill="#ce7132"/><path d="m501.46875 411.078125h-490.9375c-3.769531 0-7.066406-1.988281-8.929688-4.964844-1.007812 1.617188-1.601562 3.519531-1.601562 5.566407v9.128906c0 5.816406 4.714844 10.53125 10.53125 10.53125h490.9375c5.816406 0 10.53125-4.714844 10.53125-10.53125v-9.128906c0-2.046876-.59375-3.949219-1.601562-5.566407-1.863282 2.976563-5.160157 4.964844-8.929688 4.964844zm0 0" fill="#b75f23"/><path d="m90.210938 220.628906c8.984374 0 17.007812 5.492188 20.898437 13.890625 16.660156 35.949219 75.210937 62.503907 144.890625 62.503907s128.230469-26.554688 144.890625-62.503907c3.890625-8.398437 11.914063-13.890625 20.898437-13.890625h9.5625v-133.007812c0-6.839844-5.59375-12.433594-12.433593-12.433594h-325.832031c-6.84375 0-12.4375 5.597656-12.4375 12.433594v133.007812zm0 0" fill="#54a0ff"/><path d="m111.554688 86.59375c0-5.089844 3.101562-9.488281 7.507812-11.40625h-25.976562c-6.839844 0-12.4375 5.597656-12.4375 12.433594v133.007812h9.5625c8.984374 0 17.007812 5.492188 20.898437 13.890625.144531.308594.296875.613281.449219.921875v-148.847656zm0 0" fill="#338def"/><path d="m382.898438 257.820312-63.574219-61.617187-26.035157 25.230469c-20.78125 20.140625-53.796874 20.140625-74.578124 0l-26.035157-25.230469-63.574219 61.617187c26.453126 23.546876 73.390626 39.203126 126.898438 39.203126s100.445312-15.65625 126.898438-39.203126zm0 0" fill="#338def"/><path d="m218.675781 221.398438-26-25.199219-63.574219 61.621093c8.496094 7.5625 19.117188 14.304688 31.378907 19.984376zm0 0" fill="#117ac9"/><path d="m418.914062 75.1875h-325.828124c-6.84375 0-12.4375 5.59375-12.4375 12.433594l138.0625 134.84375c20.78125 20.140625 53.796874 20.140625 74.578124 0l138.0625-134.84375c0-6.839844-5.597656-12.433594-12.4375-12.433594zm0 0" fill="#8ac2ff"/><path d="m80.648438 87.621094 30.90625 30.1875v-31.214844c0-5.089844 3.101562-9.488281 7.503906-11.40625h-25.972656c-6.84375 0-12.4375 5.59375-12.4375 12.433594zm0 0" fill="#54a0ff"/></svg>