<?xml version="1.0" encoding="iso-8859-1"?>
<!-- Generator: Adobe Illustrator 19.0.0, SVG Export Plug-In . SVG Version: 6.00 Build 0)  -->
<svg xmlns="http://www.w3.org/2000/svg" xmlns:xlink="http://www.w3.org/1999/xlink" version="1.1" id="Capa_1" x="0px" y="0px" viewBox="0 0 359.6 359.6" style="enable-background:new 0 0 359.6 359.6;" xml:space="preserve" width="512px" height="512px">
<g>
	<g>
		<path d="M319.314,231.2c-1.6-3.6-6-5.6-9.6-4c-35.2,15.2-52.4,8-70.8,0c-18.8-8-38-16-72.4,0c-35.2,15.2-52.4,8-70.8,0    c-18.8-8-38-16-72.4,0c-3.6,1.6-5.2,6-3.6,9.6c1.6,3.6,6,5.2,9.6,3.6c28.4-13.2,43.2-6.8,60.4,0.4c11.2,4.8,23.6,10,39.6,10    c11.6,0,25.6-2.8,42.8-10c28.4-13.2,43.2-6.8,60.4,0.4c11.2,4.8,23.6,10,39.6,10c11.6,0,25.6-2.8,42.8-10    C319.314,239.2,320.914,234.8,319.314,231.2z" fill="#808080"/>
	</g>
</g>
<g>
	<g>
		<path d="M318.514,286c-0.8-4.4-5.2-6.4-8.8-4.8c-35.2,15.2-52.4,8-70.8,0c-18.8-8-38-16-72.4,0c-35.2,15.2-52.4,8-70.8,0    c-18.8-8-38.4-16-72.4,0c-3.6,2-5.2,6.4-3.6,10c1.6,3.6,6,5.2,9.6,3.6c28.4-13.2,43.2-6.8,60.4,0.4c11.2,4.8,23.6,10,39.6,10    c11.6,0,25.6-2.8,42.8-10c28.4-13.2,43.2-6.8,60.4,0.4c11.2,4.8,23.6,10,39.6,10c11.6,0,25.6-2.8,42.8-10    C318.514,294,320.514,289.6,318.514,286z" fill="#808080"/>
	</g>
</g>
<g>
	<g>
		<path d="M318.914,340c-1.6-3.6-6-5.6-9.6-4c-35.2,15.2-52.4,8-70.8,0c-18.8-8-38-16-72.4,0c-35.2,15.2-52.4,8-70.8,0    c-18.8-8-38-16-72.4,0c-3.2,1.2-4.8,5.6-3.2,9.2c1.6,3.6,6,5.2,9.6,3.6c28.4-13.2,43.2-6.8,60.4,0.4c11.2,4.8,23.6,10,39.6,10    c11.6,0,25.6-2.8,42.8-10c28.4-13.2,43.2-6.8,60.4,0.4c11.2,4.8,23.6,10,39.6,10c11.6,0,25.6-2.8,42.8-10    C318.514,348,320.514,343.6,318.914,340z" fill="#808080"/>
	</g>
</g>
<g>
	<g>
		<path d="M333.314,95.6h-38.8c-1.2-10.4-5.6-20-11.6-27.6l27.6-27.6c2.8-2.8,2.8-7.6,0-10.4s-7.6-2.8-10.4,0l-27.6,27.6    c-8-6-17.6-10.4-27.6-11.6V7.2c0-4-3.2-7.2-7.2-7.2s-7.2,3.2-7.2,7.2V46c-10.4,1.2-20,5.6-27.6,11.6l-27.6-27.6    c-2.8-2.8-7.6-2.8-10.4,0c-2.8,2.8-2.8,7.6,0,10.4l27.6,27.6c-6,8-10.4,17.6-11.6,27.6h-38.8c-4,0-7.2,3.2-7.2,7.2    s3.2,7.2,7.2,7.2h38.8c1.2,10.4,5.6,20,11.6,27.6l-27.6,27.6c-2.8,2.8-2.8,7.6,0,10.4c1.6,1.6,3.2,2,5.2,2s3.6-0.8,5.2-2    l27.6-27.6c8,6,17.6,10.4,27.6,11.6v38.8c0,4,3.2,7.2,7.2,7.2s7.2-3.2,7.2-7.2v-38.8c10.4-1.2,20-5.6,27.6-11.6l27.6,27.6    c1.6,1.6,3.2,2,5.2,2s3.6-0.8,5.2-2c2.8-2.8,2.8-7.6,0-10.4l-27.6-27.6c6-8,10.4-17.6,11.6-27.6h38.8c4,0,7.2-3.2,7.2-7.2    C340.514,98.8,337.314,95.6,333.314,95.6z M237.314,145.6c-23.6,0-42.8-19.2-42.8-42.8c0-23.6,19.2-42.8,42.8-42.8    s42.8,19.2,42.8,42.8C280.114,126.4,260.914,145.6,237.314,145.6z" fill="#808080"/>
	</g>
</g>
<g>
</g>
<g>
</g>
<g>
</g>
<g>
</g>
<g>
</g>
<g>
</g>
<g>
</g>
<g>
</g>
<g>
</g>
<g>
</g>
<g>
</g>
<g>
</g>
<g>
</g>
<g>
</g>
<g>
</g>
</svg>
