<svg id="Outline" enable-background="new 0 0 512 512" height="512" viewBox="0 0 512 512" width="512" xmlns="http://www.w3.org/2000/svg"><path d="m32 456c0 4.418 3.582 8 8 8h4.184l-11.616 29.032c-1.639 4.103.358 8.758 4.461 10.397.945.378 1.953.571 2.971.571h24c2.808-.001 5.41-1.473 6.856-3.88l21.672-36.12h326.944l21.672 36.12c1.446 2.407 4.048 3.879 6.856 3.88h24c4.418.002 8.001-3.579 8.003-7.997 0-1.018-.193-2.026-.571-2.971l-11.616-29.032h4.184c4.418 0 8-3.582 8-8v-32c0-4.418-3.582-8-8-8h-16v-264c0-4.418-3.582-8-8-8h-136v-120c0-4.418-3.582-8-8-8h-96c-4.418 0-8 3.582-8 8v120h-136c-4.418 0-8 3.582-8 8v264h-16c-4.418 0-8 3.582-8 8zm27.472 32h-7.656l9.6-24h12.448zm400.712 0h-7.656l-14.4-24h12.448zm-164.184-456v80h-80v-80zm-80 96h80v16h-80zm-8 32h232v8h-368v-8zm-136 24h368v232h-40v-97.928c-.075-69.597-56.475-125.997-126.072-126.072h-35.856c-69.597.075-125.997 56.475-126.072 126.072v97.928h-40zm312 232h-256v-97.928c.066-60.764 49.308-110.006 110.072-110.072h35.856c60.764.066 110.006 49.308 110.072 110.072zm-336 16h416v16h-416z"/><path d="m279.2 255.648c-1.971-3.954-6.774-5.562-10.729-3.591-1.556.775-2.816 2.036-3.591 3.591l-2.032 4.08-7.648-15.304c-2.358-3.954-7.475-5.249-11.429-2.891-1.189.709-2.182 1.702-2.891 2.891l-35.808 71.576c-3.322 6.662-5.058 14.003-5.072 21.448v6.552c0 30.928 25.072 56 56 56s56-25.072 56-56c-.011-2.105-.145-4.207-.4-6.296.243-1.406.4-6.92.4-6.92-.012-6.21-1.454-12.334-4.216-17.896zm16.392 83.016c3.193 21.859-11.939 42.168-33.799 45.361-21.859 3.193-42.168-11.939-45.361-33.799-.327-2.238-.463-4.501-.408-6.762l-.032-6.08c.003-4.968 1.162-9.868 3.384-14.312l28.624-57.184 7.648 15.296c1.975 3.952 6.78 5.555 10.733 3.579 1.549-.774 2.805-2.03 3.579-3.579l2.04-4.072 21.472 42.928c1.659 3.339 2.524 7.016 2.528 10.744 0 0-.5 7.195-.408 7.88z"/><path d="m280 330.72c.027-4.418-3.532-8.022-7.951-8.049-3.084-.019-5.905 1.737-7.249 4.513l-2.032 4.08-7.568-15.264c-2.358-3.954-7.475-5.249-11.429-2.891-1.189.709-2.182 1.702-2.891 2.891l-7.128 14.288c-1.127 2.233-1.714 4.699-1.712 7.2l-.04 7.264c.208 13.255 11.121 23.832 24.376 23.624s23.832-11.121 23.624-24.376c-.017-1.095-.105-2.188-.264-3.272l-.408-3.072.6-4.512c.048-.366.072-2.424.072-2.424zm-32 14.12v-7.424l7.256 14.584c-3.81-.334-6.85-3.317-7.256-7.12z"/><path d="m88 200h40v16h-40z"/><path d="m88 232h24v16h-24z"/><path d="m384 200h40v16h-40z"/><path d="m400 232h24v16h-24z"/></svg>